<svg id="Layer_1" data-name="Layer 1" xmlns="http://www.w3.org/2000/svg" viewBox="0 0 512 512"><defs><style>.cls-1{fill:#549414;}.cls-2{fill:#60a917;}.cls-3{fill:#c81e1e;}.cls-4{fill:#f44335;}.cls-5{fill:#bb193b;}.cls-6{fill:#ef314c;}</style></defs><title>cr_icon</title><path class="cls-1" d="M328.51,366.93a145.45,145.45,0,0,1-21.41-2.64c-22-4.18-46.76-14.68-51-40a39.89,39.89,0,0,1-12.79,23.3c-16.13,14.59-42.93,18.51-59.57,19.36a4.17,4.17,0,0,1-4.18-2.64,4.4,4.4,0,0,1,1.54-5.12,68.49,68.49,0,0,0,23-44.12H308.12a68.45,68.45,0,0,0,23,44.12,4.27,4.27,0,0,1-2.65,7.76Z"/><path class="cls-2" d="M307.1,364.29c-22-4.18-46.76-14.68-51-40-1.62,9.81-2.13-5.89-8.53,0-6.4-5.89-15.44,9.81-17.06,0-4.19,25.34-28.93,35.84-50.95,40a4.4,4.4,0,0,1,1.54-5.12,68.49,68.49,0,0,0,23-44.12h78.33a68.45,68.45,0,0,0,23,44.12A4.4,4.4,0,0,1,307.1,364.29Z"/><path class="cls-3" d="M368.7,225.46v1.45c-.85,51.54-41.89,99-112.55,97.36a126.87,126.87,0,0,1-12.79-.34c-79.71-5-116.4-75.61-92.59-136.11,17.41-50.85-5.46-73.55-6.49-118v-.68a8.48,8.48,0,0,1,12.89-7.34,2.38,2.38,0,0,1,.6.34,99,99,0,0,0,20.48,11.78c.51.25,1,.42,1.62.68.85.43,1.71.85,2.73,1.28V75.7a189.46,189.46,0,0,0-2.9-45.48A9.59,9.59,0,0,1,189,18.1a137.28,137.28,0,0,1,49.75,10.24,128.87,128.87,0,0,1,17.4,8.28l.77-1.28a89.73,89.73,0,0,1,32.77-21.59,96.06,96.06,0,0,1,15.79-5,8.55,8.55,0,0,1,10.41,9,91.76,91.76,0,0,0,4.77,32.67c.94,3.16,2,6.23,3.08,9,6.48-2.56,12.63-5,18.26-7.34,5.12-2.05,9.9-4,14.33-5.63a8.59,8.59,0,0,1,11.61,7.68c1.62,50.35-24.75,80.13-6.4,133.71A102.09,102.09,0,0,1,368.7,225.46Z"/><path class="cls-4" d="M157.17,61.79a2.38,2.38,0,0,1,.6.34,99,99,0,0,0,20.48,11.78c.51.25,1,.42,1.62.68.85.43,1.71.85,2.73,1.28V75.7a189.46,189.46,0,0,0-2.9-45.48,9.72,9.72,0,0,1,3.66-10.33,146.22,146.22,0,0,1,47.2,16.73l.76-1.28a63.85,63.85,0,0,1,7.43-7,128.87,128.87,0,0,1,17.4,8.28l.77-1.28a89.73,89.73,0,0,1,32.77-21.59,8.63,8.63,0,0,1,.59,3.93,104.13,104.13,0,0,0,7.86,41.72c8.11-3.15,15.61-6.23,22.52-9,3.59-1.36.6,10.59,3.76,9.39C329.2,58,340.72,47.46,342,52.06a8.45,8.45,0,0,1,.34,2c1.62,50.35-24.75,80.13-6.4,133.71a102.3,102.3,0,0,1,7.17,37.64v1.45c-.77,48.3-36.95,93.1-99.75,97-79.71-5-116.4-75.61-92.59-136.11,17.41-50.85-5.46-73.55-6.49-118Z"/><path class="cls-5" d="M368.7,225.46C368,204,352.32,182.7,330.14,163,291,128.09,231.49,98.31,198,82.87c-6.06-2.9-11.27-5.21-15.36-7V75.7A109,109,0,0,0,212,82.27a206.28,206.28,0,0,0,79.78-11.35v-.09c11.27-3.5,22-7.5,31.92-11.43,6.48-2.56,12.63-5,18.26-7.34,5.12-2.05,9.9-4,14.33-5.63a8.59,8.59,0,0,1,11.61,7.68c1.62,50.35-24.75,80.13-6.4,133.71A102.09,102.09,0,0,1,368.7,225.46Z"/><path class="cls-6" d="M330.14,163C291,128.09,231.49,98.31,198,82.87c4.69,0,9.38-.17,14.08-.6a206.28,206.28,0,0,0,79.78-11.35v-.09c11.27-3.5,22-7.5,31.92-11.43,6.48-2.56,12.63-5,18.26-7.34a8.45,8.45,0,0,1,.34,2C343.71,96.09,325.53,123.83,330.14,163Z"/><path class="cls-5" d="M291.82,70.83v.09A206.28,206.28,0,0,1,212,82.27,109,109,0,0,1,182.6,75.7a189.46,189.46,0,0,0-2.9-45.48A9.59,9.59,0,0,1,189,18.1a142.4,142.4,0,0,1,67.15,18.52A89.62,89.62,0,0,1,291.82,70.83Z"/><path class="cls-6" d="M266.22,70.83v.09A245.87,245.87,0,0,1,212,82.27,109,109,0,0,1,182.6,75.7a189.46,189.46,0,0,0-2.9-45.48,9.72,9.72,0,0,1,3.66-10.33,146.22,146.22,0,0,1,47.2,16.73A89.72,89.72,0,0,1,266.22,70.83Z"/><path class="cls-3" d="M323.74,59.4c-9.9,3.93-20.65,7.93-31.92,11.43a53.82,53.82,0,0,0-4.61-7.25,94.83,94.83,0,0,0-31.06-27l.77-1.28a89.73,89.73,0,0,1,32.77-21.59,96.06,96.06,0,0,1,15.79-5,8.55,8.55,0,0,1,10.41,9A104,104,0,0,0,323.74,59.4Z"/><path d="M256.15,512a8.53,8.53,0,0,1-8.53-8.53V324.3a8.54,8.54,0,0,1,17.07,0V503.47A8.53,8.53,0,0,1,256.15,512Z"/><path d="M259.52,332.85c-1.12,0-2.24,0-3.37-.05-43.39,1-80.71-16.28-102.32-47.25a107.1,107.1,0,0,1-11-100.82c10.11-29.52,5.44-48.44,0-70.35a191.2,191.2,0,0,1-7.08-45.09,17.06,17.06,0,0,1,27.12-14c52.3,38.95,125.21,9.47,173.45-10,6.11-2.47,11.78-4.76,16.92-6.71a17.09,17.09,0,0,1,23.19,15.34,207.93,207.93,0,0,1-6.88,54.89c-5.53,24.79-10.31,46.19,0,76.37a106.84,106.84,0,0,1-11.13,100.44C337.43,315.72,301.51,332.84,259.52,332.85Zm-3.37-17.11h.2c38.23,1,69.55-13.32,88.13-40A90,90,0,0,0,353.6,191c-12-35.1-6.26-61-.67-86a194.18,194.18,0,0,0,6.47-50.6c-5.1,2-10.66,4.2-16.65,6.62-48.65,19.68-130.07,52.59-190,7.92a183.85,183.85,0,0,0,6.73,41.34c5.54,22.47,11.27,45.7-.6,80.34a90.28,90.28,0,0,0,9,85.15c18.58,26.64,49.9,40.86,88.13,40Z"/><path d="M368.7,227h-8.53c-.39-40.38-67.76-93.1-184.82-145l2.9-8,3.45-7.8-3.45,7.8,4-7.55c88.62,39.28,194.37,99,195,160.08Z"/><path d="M182.61,84.37c-.21,0-.41,0-.62,0a8.52,8.52,0,0,1-7.9-9.12,184.76,184.76,0,0,0-2.55-42.53A18.14,18.14,0,0,1,189,9.59c39.58,0,91.68,21.48,110.36,57.42a8.53,8.53,0,1,1-15.14,7.87C268.74,45.09,222.75,26.65,189,26.65a1.09,1.09,0,0,0-.9.46,217.44,217.44,0,0,1,3,49.33A8.54,8.54,0,0,1,182.61,84.37Z"/><path d="M323.74,67.93a8.52,8.52,0,0,1-7.95-5.41,113.26,113.26,0,0,1-8.4-45.64,93.39,93.39,0,0,0-44.13,24.17,8.54,8.54,0,0,1-12.68-11.43,107.91,107.91,0,0,1,53-29.25,17.54,17.54,0,0,1,15.15,4,16.71,16.71,0,0,1,5.62,14.1,96.3,96.3,0,0,0,7.29,37.85,8.54,8.54,0,0,1-7.94,11.65Z"/><path d="M242.68,298.8c-.29,0-.57,0-.86,0-26.07-2.62-45.4-12.48-57.47-29.32-19.58-27.32-12.6-63.19-11-70.11A8.54,8.54,0,1,1,190,203.18c-.8,3.47-7.38,34.51,8.25,56.32,9.09,12.67,24.33,20.17,45.3,22.27a8.54,8.54,0,0,1-.84,17Z"/><path d="M196.42,170.8a8.53,8.53,0,1,1-8.53-8.54A8.53,8.53,0,0,1,196.42,170.8Z"/><path d="M183.45,375.48a12.59,12.59,0,0,1-11.83-8.31A12.88,12.88,0,0,1,176,352.34a60.44,60.44,0,0,0,19.73-38.62,8.53,8.53,0,0,1,16.85,2.67,85.8,85.8,0,0,1-17.16,40.92c20-2.64,48.31-10.61,52.28-34.44a8.54,8.54,0,1,1,16.84,2.8c-4.88,29.28-34.16,47.42-80.34,49.79C184,375.48,183.71,375.48,183.45,375.48Zm-.1-17.07h0Z"/><path d="M328.8,375.48c-.27,0-.54,0-.8,0-46.1-2.36-75.38-20.5-80.26-49.78a8.53,8.53,0,1,1,16.83-2.8c4,23.85,32.28,31.81,52.27,34.44a86,86,0,0,1-17.15-40.92,8.54,8.54,0,0,1,16.86-2.67,60.33,60.33,0,0,0,19.68,38.58,12.9,12.9,0,0,1,4.45,14.87A12.6,12.6,0,0,1,328.8,375.48Z"/><path d="M256.15,409.6H230.56a8.53,8.53,0,1,1,0-17.06h25.59a8.53,8.53,0,1,1,0,17.06Z"/><path d="M281.75,469.33h-25.6a8.53,8.53,0,1,1,0-17.06h25.6a8.53,8.53,0,0,1,0,17.06Z"/></svg>